<?xml version="1.0" encoding="UTF-8"?>
<svg version="1.1" xmlns="http://www.w3.org/2000/svg" width="1800" height="250" viewBox="230 318 1313 215">
<path d="M0 0 C11.21469636 -0.04658507 22.42936925 -0.08200108 33.6441431 -0.10362434 C38.85304779 -0.11400863 44.06188569 -0.1280686 49.27075195 -0.15087891 C54.30878279 -0.17280003 59.34674986 -0.18460876 64.38482475 -0.18975449 C66.29549601 -0.19341598 68.20616424 -0.20056459 70.11680794 -0.21146011 C94.49907634 -0.34482028 120.42846793 1.72501631 138.8828125 19.6953125 C148.49707919 30.16102716 151.32790896 41.2775986 151.4375 55.1875 C151.44765137 56.10168701 151.45780273 57.01587402 151.46826172 57.95776367 C151.29202758 71.73505358 145.84673406 82.70458999 136.5078125 92.64453125 C128.84195905 99.84470201 119.830979 103.62407891 110 107 C109.06800781 107.32097656 108.13601563 107.64195312 107.17578125 107.97265625 C105.12288388 108.6655494 103.06237422 109.33584559 101 110 C101.59425781 110.70382812 102.18851563 111.40765625 102.80078125 112.1328125 C107.87164718 118.17368856 112.82911832 124.28248207 117.67871094 130.50219727 C121.24870839 135.07057328 124.89317744 139.57365783 128.5625 144.0625 C133.28861515 149.84845251 137.87668781 155.71487622 142.40625 161.65625 C145.36211069 165.49886889 148.43107889 169.24751202 151.5 173 C156.40391587 178.99623345 161.18710144 185.06703546 165.87890625 191.23046875 C166.57886719 192.14441406 167.27882813 193.05835938 168 194 C168.60328125 194.91136719 169.2065625 195.82273437 169.828125 196.76171875 C172.75333204 199.77636558 175.08186546 199.98681846 179.1875 200.625 C182.98046875 201.2265625 182.98046875 201.2265625 186 202 C186.33 202.99 186.66 203.98 187 205 C182.14387639 205.19875516 177.2901499 205.34337321 172.4309082 205.43945312 C170.78074889 205.47952358 169.13087078 205.53400048 167.48168945 205.60351562 C153.8689838 206.16266028 153.8689838 206.16266028 149.53222656 203.46484375 C147.71242892 201.41318 146.37202491 199.37062957 145 197 C143.99237928 195.67531851 142.96890438 194.36254186 141.9296875 193.0625 C140.90931861 191.70994489 139.89115298 190.35572531 138.875 189 C134.45741966 183.16140234 129.95290079 177.41311843 125.3125 171.75 C120.21441992 165.52362536 115.26905383 159.20681881 110.38671875 152.80908203 C103.30521401 143.57071053 96.11877207 134.41094049 88.9375 125.25 C88.50896729 124.702229 88.08043457 124.15445801 87.63891602 123.59008789 C85.54270941 120.92109749 83.40554393 118.30523054 81.19140625 115.734375 C79 113 79 113 79 111 C65.8 111 52.6 111 39 111 C39 140.37 39 169.74 39 200 C42.96 200.33 46.92 200.66 51 201 C53.33664559 201.30926192 55.67225089 201.62967628 58 202 C58 202.99 58 203.98 58 205 C38.86 205 19.72 205 0 205 C0.33 204.01 0.66 203.02 1 202 C3.20751848 201.66131223 5.41605911 201.32928311 7.625 201 C8.85476563 200.814375 10.08453125 200.62875 11.3515625 200.4375 C15 200 15 200 21 200 C21 135.65 21 71.3 21 5 C17.04 4.67 13.08 4.34 9 4 C6.33122842 3.68396126 3.6633955 3.35853401 1 3 C0.67 2.01 0.34 1.02 0 0 Z M39 8 C39 39.68 39 71.36 39 104 C82.31293495 106.31355626 82.31293495 106.31355626 120.0234375 88.0546875 C128.55172918 78.87867747 131.3566418 68.9854062 131.3125 56.6875 C131.32861328 55.80126953 131.34472656 54.91503906 131.36132812 54.00195312 C131.37046292 41.47815111 126.80646062 30.97026671 118.375 21.75 C97.81274633 2.32573365 63.33815762 8 39 8 Z " fill="#FFFFFF" transform="translate(1132,322)"/>
<path d="M0 0 C19.8 0 39.6 0 60 0 C60 0.66 60 1.32 60 2 C52.81000819 3.79749795 46.58621255 4.36781562 39 5 C39.33 38 39.66 71 40 105 C43.465 101.535 43.465 101.535 47 98 C48.89336032 96.33127565 50.78774762 94.66357293 52.69921875 93.015625 C55.50773066 90.55519691 58.25460187 88.03023215 61 85.5 C64.9326638 81.87890073 68.90214504 78.31040648 72.94140625 74.80859375 C75.4895665 72.5698875 77.99410593 70.28589788 80.5 68 C83.61907011 65.15475772 86.74755391 62.3280042 89.9375 59.5625 C93.88667367 56.13231424 97.73022305 52.58996482 101.57788086 49.04711914 C104.96462619 45.93400701 108.39906249 42.88747918 111.875 39.875 C114.61823418 37.45449925 117.30884568 34.97799358 120 32.5 C123.90981595 28.89987244 127.85866468 25.35582395 131.875 21.875 C135.14692141 18.98801052 138.34681237 16.02272742 141.55615234 13.06665039 C145.14685249 9.76533798 148.78376048 6.52624887 152.4765625 3.33984375 C153.69172835 2.27112096 154.8557106 1.1442894 156 0 C158.33837891 -0.22705078 158.33837891 -0.22705078 161.2265625 -0.1953125 C162.7734375 -0.18564453 162.7734375 -0.18564453 164.3515625 -0.17578125 C165.97191406 -0.15064453 165.97191406 -0.15064453 167.625 -0.125 C168.71296875 -0.11597656 169.8009375 -0.10695313 170.921875 -0.09765625 C173.61480152 -0.07403409 176.30729255 -0.04109556 179 0 C179 0.66 179 1.32 179 2 C178.22398437 2.06574219 177.44796875 2.13148438 176.6484375 2.19921875 C166.00755069 3.7864632 160.93669069 8.9738875 153.62841797 16.39892578 C151.36305343 18.62625121 148.92774861 20.59270973 146.4375 22.5625 C142.28899743 25.88252041 138.37472764 29.37049392 134.5 33 C130.62527236 36.62950608 126.71100257 40.11747959 122.5625 43.4375 C118.18748028 46.94643139 114.07979091 50.65844505 110 54.5 C105.09570347 59.11791425 100.06828256 63.4586546 94.8046875 67.66796875 C90.86892589 70.94046134 87.13888195 74.41914844 83.41381836 77.92797852 C80.71622434 80.46073125 78.0214032 82.85953605 75 85 C76.60931019 88.85507075 79.09855204 91.46961652 81.9375 94.5 C82.93631818 95.57280471 83.93501268 96.64572458 84.93359375 97.71875 C85.44390137 98.26402344 85.95420898 98.80929687 86.47998047 99.37109375 C88.83778409 101.89779882 91.16818862 104.44933188 93.5 107 C94.41651904 108.00013531 95.33318615 109.00013494 96.25 110 C105.41666667 120 114.58333333 130 123.75 140 C124.20391113 140.49516113 124.65782227 140.99032227 125.12548828 141.50048828 C126.04058633 142.49880661 126.95562555 143.49717886 127.87060547 144.49560547 C130.18578852 147.0217842 132.5020401 149.54696832 134.8203125 152.0703125 C139.04766751 156.67349765 143.26526083 161.28413776 147.4375 165.9375 C150.88577933 169.77916592 154.37068347 173.58457119 157.875 177.375 C158.37829834 177.91954834 158.88159668 178.46409668 159.40014648 179.02514648 C161.44773147 181.24006802 163.49558197 183.45474357 165.54394531 185.66894531 C167.03097722 187.2777559 168.51573246 188.88863922 170 190.5 C170.86625 191.4384375 171.7325 192.376875 172.625 193.34375 C175 196 175 196 176.921875 198.76171875 C179.6004823 201.64676007 181.38979422 201.85095366 185.25 202.3125 C186.32765625 202.45300781 187.4053125 202.59351563 188.515625 202.73828125 C189.33546875 202.82464844 190.1553125 202.91101563 191 203 C191 203.33 191 203.66 191 204 C186.2862406 204.17396062 181.57437563 204.30048333 176.8581543 204.38452148 C175.256586 204.41957346 173.65523931 204.46723248 172.05444336 204.52807617 C158.77314465 205.01997612 158.77314465 205.01997612 154.46240234 202.5402832 C152.69395088 200.78327274 151.36776353 199.07664394 150 197 C148.93046073 195.75881204 147.8483251 194.52828937 146.75 193.3125 C145.88761719 192.31283203 145.88761719 192.31283203 145.0078125 191.29296875 C142.58927388 188.53094118 140.11108624 185.82602288 137.625 183.125 C132.71184234 177.7838465 127.84620545 172.40204264 123 167 C121.50028872 165.33307353 120.00028679 163.66640851 118.5 162 C82.5 122 82.5 122 80.25390625 119.50390625 C78.74145985 117.82370149 77.22843141 116.14402049 75.71484375 114.46484375 C70.78734577 108.99641975 65.88292732 103.50826133 61 98 C58.26304275 99.93196982 55.64087128 101.94094435 53 104 C51.92373856 104.76032532 50.84747711 105.52065063 49.73860168 106.30401611 C44.68429209 110.13351192 40.09419291 113.85177586 38.81796265 120.31872559 C38.24471817 125.39346816 38.37801772 130.450786 38.51171875 135.546875 C38.5135312 137.41302797 38.50959374 139.2791945 38.50019836 141.14532471 C38.49089259 146.01960652 38.55884842 150.88975504 38.64379883 155.76318359 C38.71677507 160.75084481 38.71546507 165.73845161 38.72070312 170.7265625 C38.74175168 180.48571835 38.8445542 190.24212316 39 200 C39.8053418 200.05986084 40.61068359 200.11972168 41.44042969 200.18139648 C43.03999512 200.30623413 43.03999512 200.30623413 44.671875 200.43359375 C45.7247168 200.51407959 46.77755859 200.59456543 47.86230469 200.67749023 C52.02695218 201.10555585 55.94143366 201.98535842 60 203 C60 203.66 60 204.32 60 205 C40.2 205 20.4 205 0 205 C0 204.34 0 203.68 0 203 C7.18999181 201.20250205 13.41378745 200.63218438 21 200 C21 135.65 21 71.3 21 5 C14.73 4.34 8.46 3.68 2 3 C1.34 2.67 0.68 2.34 0 2 C0 1.34 0 0.68 0 0 Z " fill="#FFFFFF" transform="translate(666,322)"/>
<path d="M0 0 C19.8 0 39.6 0 60 0 C60 0.66 60 1.32 60 2 C50.1 3.485 50.1 3.485 40 5 C39.95347532 21.11747935 39.91789561 37.23493049 39.89637566 53.35246086 C39.88611293 60.83802467 39.87214975 68.3235457 39.84912109 75.80908203 C39.82903244 82.34213993 39.81624733 88.87516681 39.81182301 95.40825474 C39.80924149 98.85959986 39.80328165 102.31085633 39.78853989 105.7621727 C39.07064461 145.71629962 39.07064461 145.71629962 57.09765625 180.3203125 C76.59410913 197.53483969 98.88487421 199.41805259 124 198 C139.02277115 196.37895604 153.92255451 189.30332437 164 178 C177.19610815 160.63402338 178.17915473 141.66923221 178.11352539 120.56884766 C178.11374443 118.67846519 178.11374443 118.67846519 178.1139679 116.74989319 C178.11425101 113.34379123 178.10843403 109.93772558 178.10139394 106.53163195 C178.09507837 102.95357486 178.09455019 99.37551664 178.09336853 95.79745483 C178.09027913 89.04408822 178.08209848 82.29073808 178.07201904 75.53737867 C178.060783 67.83950023 178.0553287 60.14162094 178.05032361 52.44373631 C178.03991346 36.62914642 178.02159826 20.81457918 178 5 C165.625 3.515 165.625 3.515 153 2 C153 1.34 153 0.68 153 0 C171.48 0 189.96 0 209 0 C209 0.66 209 1.32 209 2 C202.4 2.99 195.8 3.98 189 5 C188.99635437 6.72870834 188.99270874 8.45741669 188.98895264 10.23851013 C188.95190467 26.58296717 188.89425841 42.92723156 188.81609726 59.27154446 C188.77643982 67.67297587 188.7439803 76.07431541 188.72900391 84.47583008 C188.71591793 91.80627563 188.68877846 99.13651791 188.64538693 106.46684891 C188.62292668 110.34128003 188.60707991 114.21546192 188.60811615 118.08996391 C188.60747535 144.36759303 187.39491548 167.38489571 167.83984375 187.1875 C151.21568443 202.66819863 129.34989025 207.58656765 107.22094727 207.39111328 C105.06657405 207.37503041 102.91408276 207.39107201 100.75976562 207.41015625 C78.27600228 207.44497691 56.84268036 201.46343725 40 186 C25.1434597 170.85167823 20.54409739 152.25924989 20.56762695 131.46728516 C20.55858107 130.07606656 20.54824709 128.68485584 20.53674316 127.2936554 C20.509478 123.56524262 20.49993083 119.83698226 20.49388909 116.10848284 C20.48442483 112.19403732 20.45821586 108.27970217 20.43388367 104.36532593 C20.39043425 96.974502 20.36175558 89.58369976 20.33856028 82.19278753 C20.3113921 73.76934237 20.26748843 65.34600944 20.22227156 56.92264485 C20.12973455 39.61515253 20.05850671 22.30763966 20 5 C13.4 4.01 6.8 3.02 0 2 C0 1.34 0 0.68 0 0 Z " fill="#FFFFFF" transform="translate(884,322)"/>
<path d="M0 0 C1.20720703 -0.01160156 2.41441406 -0.02320313 3.65820312 -0.03515625 C15.07903825 0.00150775 25.9150372 1.92244615 36.5 6.25 C37.68464844 6.72179687 38.86929688 7.19359375 40.08984375 7.6796875 C41.23582031 8.23914063 42.38179688 8.79859375 43.5625 9.375 C44.52579224 9.74806274 44.52579224 9.74806274 45.50854492 10.12866211 C47.87004381 11.31016796 49.0312805 12.19949106 50.5625 14.375 C51.73232336 19.61964997 51.86592307 24.84051203 52 30.1875 C52.0613725 31.6583349 52.12579427 33.12904593 52.19335938 34.59960938 C52.35171581 38.19064956 52.4683134 41.78163854 52.5625 45.375 C51.2425 45.375 49.9225 45.375 48.5625 45.375 C48.35886841 44.50548706 48.35886841 44.50548706 48.15112305 43.6184082 C47.52623115 40.97260057 46.88825104 38.33011535 46.25 35.6875 C46.03666016 34.77548828 45.82332031 33.86347656 45.60351562 32.92382812 C43.56436501 24.24846575 43.56436501 24.24846575 37.26171875 18.27734375 C35.9341442 17.60302017 34.59613733 16.94895956 33.25 16.3125 C32.53215332 15.96960938 31.81430664 15.62671875 31.07470703 15.2734375 C20.39607875 10.31255565 11.05039881 8.04740174 -0.6875 7.9375 C-1.59838379 7.9271875 -2.50926758 7.916875 -3.44775391 7.90625 C-14.64610499 8.05244787 -23.93896559 11.33961281 -32.19140625 19.00390625 C-40.06924853 27.51355543 -42.10359343 38.08840607 -42.4375 49.375 C-41.9905841 59.84887527 -39.21478658 69.04057235 -31.625 76.5 C-20.21649017 85.64691096 -6.07801836 90.1603672 7.6875 94.4375 C26.38450903 100.26332252 45.66881687 106.81762771 56.5625 124.375 C60.99232484 133.42372757 61.76565203 141.47644981 61.8125 151.4375 C61.8434375 153.04141602 61.8434375 153.04141602 61.875 154.67773438 C61.94971316 170.13401993 57.55779814 182.87922898 46.87890625 194.12109375 C33.18564687 207.44488914 16.13817804 210.96017288 -2.5 210.8125 C-3.5138829 210.80743942 -3.5138829 210.80743942 -4.54824829 210.80227661 C-23.63412408 210.66495199 -40.77367163 206.54556163 -58.4375 199.375 C-59.20255859 199.08359131 -59.96761719 198.79218262 -60.75585938 198.49194336 C-62.84977137 197.60249608 -64.62880081 196.75501776 -66.4375 195.375 C-67.4375 192.44140625 -67.4375 192.44140625 -67.4375 188.9375 C-67.45683594 187.6278125 -67.47617187 186.318125 -67.49609375 184.96875 C-67.47664604 183.43749894 -67.45710746 181.90624903 -67.4375 180.375 C-67.44585742 178.48956544 -67.45774819 176.60414415 -67.47265625 174.71875 C-67.50365467 169.60358056 -67.48553853 164.48999457 -67.4375 159.375 C-66.4475 159.375 -65.4575 159.375 -64.4375 159.375 C-64.31858398 160.16148926 -64.19966797 160.94797852 -64.07714844 161.75830078 C-63.50207376 165.35013461 -62.84592685 168.92254746 -62.1875 172.5 C-62.001875 173.7375 -61.81625 174.975 -61.625 176.25 C-60.31851949 183.24577218 -60.31851949 183.24577218 -55.81542969 188.47119141 C-52.73679247 190.03769445 -49.70389491 191.257824 -46.4375 192.375 C-45.67469727 192.6848584 -44.91189453 192.9947168 -44.12597656 193.31396484 C-42.16364619 194.11077551 -40.19307748 194.82018543 -38.1875 195.5 C-37.46771973 195.74443848 -36.74793945 195.98887695 -36.00634766 196.24072266 C-33.82163336 196.96832377 -31.63078184 197.67371245 -29.4375 198.375 C-28.79329102 198.58962891 -28.14908203 198.80425781 -27.48535156 199.02539062 C-13.29373421 203.66028898 5.0049945 205.54586473 19.05859375 199.6953125 C31.10805466 193.34161861 37.38700851 185.30831724 41.5625 172.375 C44.25622971 162.44411647 44.54170567 147.59570689 39.8125 138.3671875 C39.4 137.70976562 38.9875 137.05234375 38.5625 136.375 C38.15 135.67632812 37.7375 134.97765625 37.3125 134.2578125 C31.97139181 126.215803 24.02167581 121.8198485 15.34765625 118.03515625 C14.65548508 117.73299194 13.9633139 117.43082764 13.25016785 117.11950684 C4.3951148 113.34294072 -4.77655488 110.51931039 -13.95483398 107.64550781 C-30.74022413 102.36360162 -47.63456334 95.74979312 -57.15380859 79.86621094 C-61.26698986 71.88391699 -61.9653117 63.33703538 -61.875 54.5 C-61.86670166 53.4478833 -61.85840332 52.3957666 -61.84985352 51.31176758 C-61.52387302 36.29926387 -56.73810119 24.18658298 -45.8125 13.5625 C-32.74235311 2.50922903 -16.62504015 -0.15926063 0 0 Z " fill="#FFFFFF" transform="translate(336.4375,318.625)"/>
<path d="M0 0 C3.3 0 6.6 0 10 0 C19.08335309 20.07975965 28.11274575 40.18006797 36.9375 60.375 C43.02211106 74.2977397 49.21369681 88.16718137 55.5 102 C62.5867727 117.59596968 69.54255562 133.24435541 76.40185547 148.94165039 C80.13205927 157.47620722 83.88165563 166.00101873 87.68359375 174.50390625 C88.24879982 175.76914124 88.24879982 175.76914124 88.82542419 177.05993652 C90.62135959 181.07903035 92.42126681 185.09627146 94.22729492 189.11083984 C94.86261078 190.53086036 95.49779133 191.95094143 96.1328125 193.37109375 C96.42558578 194.01792618 96.71835907 194.66475861 97.02000427 195.33119202 C99 199.77301719 99 199.77301719 99 202 C99.74765625 202.06058594 100.4953125 202.12117187 101.265625 202.18359375 C102.25046875 202.26738281 103.2353125 202.35117187 104.25 202.4375 C105.71179687 202.55931641 105.71179687 202.55931641 107.203125 202.68359375 C109.56461753 202.95074584 111.71901065 203.35371968 114 204 C114 204.66 114 205.32 114 206 C94.2 206 74.4 206 54 206 C54 205.34 54 204.68 54 204 C66.375 202.515 66.375 202.515 79 201 C77.86304688 198.48375 76.72609375 195.9675 75.5546875 193.375 C67.32123947 175.13546598 59.13886522 156.87716475 51.15380859 138.52734375 C50.87782333 137.89323578 50.60183807 137.25912781 50.31748962 136.60580444 C49.58176564 134.91419197 48.84734906 133.22201105 48.11303711 131.52978516 C47.44205706 130.00473684 46.74511564 128.49023128 46 127 C15.64 127 -14.72 127 -46 127 C-57.32199328 152.57676878 -57.32199328 152.57676878 -68.43041992 178.24389648 C-69.3597297 180.42326039 -70.29201149 182.60133818 -71.22460938 184.77929688 C-71.83349046 186.20305782 -72.44222157 187.6268829 -73.05078125 189.05078125 C-73.32150955 189.68389725 -73.59223785 190.31701324 -73.87117004 190.96931458 C-75.29017293 194.29837283 -76.65563773 197.63909432 -78 201 C-70.41 201.99 -62.82 202.98 -55 204 C-55 204.66 -55 205.32 -55 206 C-71.83 206 -88.66 206 -106 206 C-106 205.34 -106 204.68 -106 204 C-104.91203125 204.08507812 -103.8240625 204.17015625 -102.703125 204.2578125 C-97.68529375 204.26411631 -93.29572171 203.74737578 -89 201 C-83.85901289 194.59216722 -81.30203378 186.3358065 -78.43164062 178.7265625 C-76.15234509 172.79355311 -73.55821402 167.00420562 -71 161.1875 C-70.19068738 159.31552091 -69.38523369 157.44190934 -68.57984924 155.5682373 C-63.91866751 144.7327587 -59.11312677 133.96172387 -54.3125 123.1875 C-47.81485163 108.60038897 -41.34693626 94.00109779 -34.9375 79.375 C-27.80776902 63.10578859 -20.64224649 46.85269939 -13.45483398 30.60888672 C-8.94577655 20.41637874 -4.45759101 10.21512711 0 0 Z M-1 22 C-11.81430634 46.27684045 -22.59497159 70.56760844 -33.26123047 94.90991211 C-33.61877411 95.72586349 -33.97631775 96.54181488 -34.34469604 97.38249207 C-35.00118655 98.88106809 -35.6574048 100.37976344 -36.31326294 101.87861633 C-36.60949554 102.55514755 -36.90572815 103.23167877 -37.2109375 103.92871094 C-37.49807617 104.58609253 -37.78521484 105.24347412 -38.08105469 105.92077637 C-38.74923104 107.43260526 -39.42845407 108.93956673 -40.11425781 110.44348145 C-40.48131836 111.25136108 -40.84837891 112.05924072 -41.2265625 112.89160156 C-41.56510254 113.62912659 -41.90364258 114.36665161 -42.25244141 115.12652588 C-43.123536 116.97341078 -43.123536 116.97341078 -43 119 C-14.62 119 13.76 119 43 119 C40.96954073 112.90862219 38.88767458 107.21637609 36.2265625 101.42578125 C35.86637024 100.63170364 35.50617798 99.83762604 35.1350708 99.01948547 C34.3662649 97.32517012 33.59559119 95.63170121 32.82318115 93.93902588 C30.78348781 89.46782607 28.75883343 84.98983268 26.734375 80.51171875 C26.32931732 79.61626343 25.92425964 78.72080811 25.50692749 77.79821777 C21.88398117 69.77423409 18.35630937 61.71128469 14.875 53.625 C14.35542725 52.4186792 13.83585449 51.2123584 13.30053711 49.96948242 C12.80303955 48.81424072 12.30554199 47.65899902 11.79296875 46.46875 C8.26671187 38.2806007 4.64833543 30.13435514 1 22 C0.34 22 -0.32 22 -1 22 Z " fill="#FFFFFF" transform="translate(1429,320)"/>
<path d="M0 0 C3.3 0 6.6 0 10 0 C19.08335309 20.07975965 28.11274575 40.18006797 36.9375 60.375 C43.02211106 74.2977397 49.21369681 88.16718137 55.5 102 C62.5867727 117.59596968 69.54255562 133.24435541 76.40185547 148.94165039 C80.13205927 157.47620722 83.88165563 166.00101873 87.68359375 174.50390625 C88.24879982 175.76914124 88.24879982 175.76914124 88.82542419 177.05993652 C90.62135959 181.07903035 92.42126681 185.09627146 94.22729492 189.11083984 C94.86261078 190.53086036 95.49779133 191.95094143 96.1328125 193.37109375 C96.42558578 194.01792618 96.71835907 194.66475861 97.02000427 195.33119202 C99 199.77301719 99 199.77301719 99 202 C99.74765625 202.06058594 100.4953125 202.12117187 101.265625 202.18359375 C102.25046875 202.26738281 103.2353125 202.35117187 104.25 202.4375 C105.71179688 202.55931641 105.71179688 202.55931641 107.203125 202.68359375 C109.56461753 202.95074584 111.71901065 203.35371968 114 204 C114 204.66 114 205.32 114 206 C94.2 206 74.4 206 54 206 C54 205.34 54 204.68 54 204 C66.375 202.515 66.375 202.515 79 201 C77.86304688 198.48375 76.72609375 195.9675 75.5546875 193.375 C67.32123947 175.13546598 59.13886522 156.87716475 51.15380859 138.52734375 C50.87782333 137.89323578 50.60183807 137.25912781 50.31748962 136.60580444 C49.58176564 134.91419197 48.84734906 133.22201105 48.11303711 131.52978516 C47.44205706 130.00473684 46.74511564 128.49023128 46 127 C15.64 127 -14.72 127 -46 127 C-57.32199328 152.57676878 -57.32199328 152.57676878 -68.43041992 178.24389648 C-69.3597297 180.42326039 -70.29201149 182.60133818 -71.22460938 184.77929688 C-71.83349046 186.20305782 -72.44222157 187.6268829 -73.05078125 189.05078125 C-73.32150955 189.68389725 -73.59223785 190.31701324 -73.87117004 190.96931458 C-75.29017293 194.29837283 -76.65563773 197.63909432 -78 201 C-70.41 201.99 -62.82 202.98 -55 204 C-55 204.66 -55 205.32 -55 206 C-71.83 206 -88.66 206 -106 206 C-106 205.34 -106 204.68 -106 204 C-104.91203125 204.08507812 -103.8240625 204.17015625 -102.703125 204.2578125 C-97.68529375 204.26411631 -93.29572171 203.74737578 -89 201 C-83.85901289 194.59216722 -81.30203378 186.3358065 -78.43164062 178.7265625 C-76.15234509 172.79355311 -73.55821402 167.00420562 -71 161.1875 C-70.19068738 159.31552091 -69.38523369 157.44190934 -68.57984924 155.5682373 C-63.91866751 144.7327587 -59.11312677 133.96172387 -54.3125 123.1875 C-47.81485163 108.60038897 -41.34693626 94.00109779 -34.9375 79.375 C-27.80776902 63.10578859 -20.64224649 46.85269939 -13.45483398 30.60888672 C-8.94577655 20.41637874 -4.45759101 10.21512711 0 0 Z M-1 22 C-11.81430634 46.27684045 -22.59497159 70.56760844 -33.26123047 94.90991211 C-33.61877411 95.72586349 -33.97631775 96.54181488 -34.34469604 97.38249207 C-35.00118655 98.88106809 -35.6574048 100.37976344 -36.31326294 101.87861633 C-36.60949554 102.55514755 -36.90572815 103.23167877 -37.2109375 103.92871094 C-37.49807617 104.58609253 -37.78521484 105.24347412 -38.08105469 105.92077637 C-38.74923104 107.43260526 -39.42845407 108.93956673 -40.11425781 110.44348145 C-40.48131836 111.25136108 -40.84837891 112.05924072 -41.2265625 112.89160156 C-41.56510254 113.62912659 -41.90364258 114.36665161 -42.25244141 115.12652588 C-43.123536 116.97341078 -43.123536 116.97341078 -43 119 C-14.62 119 13.76 119 43 119 C40.96954073 112.90862219 38.88767458 107.21637609 36.2265625 101.42578125 C35.86637024 100.63170364 35.50617798 99.83762604 35.1350708 99.01948547 C34.3662649 97.32517012 33.59559119 95.63170121 32.82318115 93.93902588 C30.78348781 89.46782607 28.75883343 84.98983268 26.734375 80.51171875 C26.32931732 79.61626343 25.92425964 78.72080811 25.50692749 77.79821777 C21.88398117 69.77423409 18.35630937 61.71128469 14.875 53.625 C14.35542725 52.4186792 13.83585449 51.2123584 13.30053711 49.96948242 C12.80303955 48.81424072 12.30554199 47.65899902 11.79296875 46.46875 C8.26671187 38.2806007 4.64833543 30.13435514 1 22 C0.34 22 -0.32 22 -1 22 Z " fill="#FFFFFF" transform="translate(525,320)"/>
</svg>
